# xmcd
#
# Track frame offsets:
# 150
# 11546
# 25656
# 38438
# 47954
# 58718
# 68799
# 81696
# 95447
# 107974
# 119307
#
# Disc length: 1763 seconds
#
#
# Revision: 1
# Processed by: cddbd v1.5.2PL0 Copyright (c) Steve Scherf et al.
# Submitted via: FreeRIP 2.90 
#
DISCID=8e06e10b
DTITLE=Freddy Fender - Greatest Hits
DYEAR=2005
DGENRE=Country
TTITLE0=Before the Next Teardrop Falls
TTITLE1=Wild Side of Life
TTITLE2=You'll Lose a Good Thing
TTITLE3=The Rains Came
TTITLE4=She's About a Mover
TTITLE5=Crazy Baby
TTITLE6=Silver Wings
TTITLE7=Baby I Want To Love
TTITLE8=Almost Persuaded
TTITLE9=I'm Leaving It Up To You
TTITLE10=Wasted Days And Wasted Nights
EXTD=
EXTT0=
EXTT1=
EXTT2=
EXTT3=
EXTT4=
EXTT5=
EXTT6=
EXTT7=
EXTT8=
EXTT9=
EXTT10=
PLAYORDER=
